# xmcd
#
# Track frame offsets:
#	150
#	14884
#	30021
#	43784
#	56723
#	71083
#	90768
#	105291
#	117423
#	131165
#	142822
#	155563
#	167610
#	178694
#	192149
#	200875
#	215076
#	223223
#	233730
#	249404
#	260230
#	276409
#	288376
#	300352
#	315854
#
# Disc length: 4300 seconds
#
# Revision: 0
# Processed by: cddbd v1.5.2PL0 Copyright (c) Steve Scherf et al.
# Submitted via: audiograbber 1.83.01
#
DISCID=7110ca19
DTITLE=Teddy Edelmann - 100 Go'e 4
DYEAR=1900
DGENRE=Country
TTITLE0=Sensous Woman
TTITLE1=Beating Heart In The City
TTITLE2=Come A Little Bit Closer
TTITLE3=Armstrong
TTITLE4=Stoney
TTITLE5=In The Early Morning Rain
TTITLE6=Lost My Baby Blues
TTITLE7=That Was Before My Time
TTITLE8=Can The Circle Be My Time
TTITLE9=Six Days On The Road
TTITLE10=Tiger By Tha Tail
TTITLE11=King Of The Road
TTITLE12=Walk On By
TTITLE13=Babu I Don't Care
TTITLE14=Ready Teddy
TTITLE15=One Night With You
TTITLE16=Lawly Miss Clawdy
TTITLE17=That's Allright
TTITLE18=Lonely Blueboy
TTITLE19=King Creole
TTITLE20=When My Dreamboat Comes Home
TTITLE21=Memphis Tennesee
TTITLE22=Fall In Love With You
TTITLE23=Kansas City
TTITLE24=Hound Dog
EXTD=
EXTT0=
EXTT1=
EXTT2=
EXTT3=
EXTT4=
EXTT5=
EXTT6=
EXTT7=
EXTT8=
EXTT9=
EXTT10=
EXTT11=
EXTT12=
EXTT13=
EXTT14=
EXTT15=
EXTT16=
EXTT17=
EXTT18=
EXTT19=
EXTT20=
EXTT21=
EXTT22=
EXTT23=
EXTT24=
PLAYORDER=
